<svg xmlns="http://www.w3.org/2000/svg" 
  xmlns:xlink="http://www.w3.org/1999/xlink" version="1.1" x="0px" y="0px" viewBox="0 0 100 125" enable-background="new 0 0 100 100" xml:space="preserve">
  <g fill="white">
    <path d="M14.009,57.681c0,2.359-2.118,2.808-2.118,4.92c0,2.115,5.148,1.064,5.1,2.411c-0.047,1.345-3.754,0.386-3.754,2.498   c0,2.114,3.947,2.031,3.947,3.944c0,1.912-5.479,7.397,0.096,10.473c5.574,3.077,20.569-1.921,23.068-0.574   c2.499,1.345,0,8.842,3.845,13.647h42.101c0,0-9.228-17.686-9.228-24.029c0-6.343,9.475-12.104,12.976-21.529   C101.026,19.863,74.95,5,54.67,5c-20.282,0-27.927,6.601-32.588,11.837c-4.66,5.237-4.707,14.396-4.707,20.5   c0,6.104-6.817,8.254-9.508,13.253C5.175,55.589,14.009,55.32,14.009,57.681z M28.543,24.56c0,0-0.348-6.505,6.399-5.65   c0,0,0.197-5.454,6.195-3.897c0,0,1.601-4.579,6.551-1.934c0,0,3.366-3.706,6.373-0.272c0,0,3.382-3.282,5.767,0.45   c0,0,3.513-3.129,5.474,1.196c0,0,4.746-1.721,5.096,2.482c0,0,5.026-0.719,4.327,3.5c0,0,9.724,1.565,7.948,13.261   c3.517,5.229-3.757,14.566-15.22,7.491c2.045,3.665-2.294,11.249-2.294,11.249h-2.408c0,0,0.975-7.303-1.241-9.113   c-0.696,5.927-6.079,2.199-6.079,2.199c-6.854,3.48-14.651,0.155-14.855-5.074C26.284,43.679,22.021,30.374,28.543,24.56z"/>
  </g>
</svg>